<svg width="69" height="64" viewBox="0 0 69 64" fill="none" xmlns="http://www.w3.org/2000/svg">
<path d="M43.8069 28.7036H39.8638H37.8923H36.9065H35.9207L38.8234 30.6237H39.2285H39.6337H43.8069C49.9575 30.6237 53.0328 33.7811 53.0328 40.0961H54.722V19.4019H53.0328C53.0328 25.603 49.9575 28.7036 43.8069 28.7036Z" fill="#E5662F"/>
<path d="M14.0572 5.02261C16.2229 3.20209 19.0095 1.95222 22.4168 1.89533C22.5407 1.89021 22.664 1.88632 22.7866 1.88364L51.6034 1.89817C61.017 1.89817 66.0269 6.29302 66.6333 15.0827L68.3226 14.8267L67.3697 0.0207584L22.7866 0.00425876C22.5189 -0.00545328 22.2622 0.00448429 21.9946 0.00448429C15.8152 0.00448429 10.7509 1.75136 6.82382 5.10794C3.41647 8.26541 1.71279 12.2336 1.71279 17.0124C1.77054 23.7256 6.18855 29.2725 14.9668 33.6531C16.4684 34.4212 18.7496 35.3883 21.8104 36.5546C24.8713 37.6924 27.4845 38.8587 29.6502 40.0534C31.8448 41.305 33.433 42.5424 34.4147 43.7656C35.512 45.2447 36.1473 46.8519 36.3206 48.5871C36.4938 50.7774 36.2628 52.669 35.6275 54.262C34.9634 56.1394 33.7795 57.6755 32.0758 58.8702C29.3903 60.776 25.9108 61.6436 21.6372 61.4729C16.2662 61.2738 11.8482 59.496 8.38312 56.1394C5.43778 53.2379 3.32984 49.1987 2.0593 44.0216H0.5V63.0517H2.0593C2.1748 61.2027 2.62238 59.9084 3.40203 59.1689C4.18168 58.4293 5.03352 58.2159 5.95755 58.5288C6.91045 58.8133 8.16655 59.3964 9.72585 60.2782C13.7974 62.5539 17.8255 63.777 21.8104 63.9477C22.303 63.9721 22.7888 63.9856 23.268 63.9884L67.4172 64L68.5 46.2926L66.9407 46.1646C66.3343 56.9455 59.4041 62.3359 46.1501 62.3359L32.6542 62.3384C34.8479 61.4531 36.8208 60.2118 38.5729 58.6142C42.6733 54.8309 44.8678 50.2369 45.1566 44.8323C45.3298 40.9352 44.6368 37.7066 43.0775 35.1465C42.0108 33.4925 40.5928 31.9849 38.8234 30.6237L35.9207 28.7036C33.7941 27.522 30.0147 25.9432 24.5825 23.9674C18.7784 21.8909 15.1112 20.0846 13.5808 18.5485C12.3391 17.3538 11.5595 15.9884 11.2418 14.4523C10.8376 12.6318 10.8953 10.8824 11.4151 9.20411C11.8482 7.44048 12.7289 6.04665 14.0572 5.02261Z" fill="black"/>
</svg>
