<svg width="68" height="65" viewBox="0 0 68 65" fill="none" xmlns="http://www.w3.org/2000/svg">
<path d="M43.3069 29.1521H39.3638H37.3923H36.4065H35.4207L38.3234 31.1022H38.7285H39.1337H43.3069C49.4575 31.1022 52.5328 34.309 52.5328 40.7226H54.222V19.705H52.5328C52.5328 26.0031 49.4575 29.1521 43.3069 29.1521Z" fill="#E5662F"/>
<path d="M13.5572 5.10108C15.7229 3.25212 18.5095 1.98272 21.9168 1.92494C22.0407 1.91975 22.164 1.91579 22.2866 1.91307L51.1034 1.92783C60.517 1.92783 65.5269 6.39135 66.1333 15.3184L67.8226 15.0584L66.8697 0.0210827L22.2866 0.0043253C22.0189 -0.00553849 21.7622 0.00455435 21.4946 0.00455435C15.3152 0.00455435 10.2509 1.77872 6.32382 5.18776C2.91647 8.39456 1.21279 12.4247 1.21279 17.2783C1.27054 24.0963 5.68855 29.7299 14.4668 34.179C15.9684 34.959 18.2496 35.9413 21.3104 37.1258C24.3713 38.2814 26.9845 39.4659 29.1502 40.6792C31.3448 41.9504 32.933 43.2071 33.9147 44.4494C35.012 45.9517 35.6473 47.584 35.8206 49.3463C35.9938 51.5708 35.7628 53.492 35.1275 55.1098C34.4634 57.0166 33.2795 58.5766 31.5758 59.79C28.8903 61.7257 25.4108 62.6068 21.1372 62.4334C15.7662 62.2312 11.3482 60.4256 7.88312 57.0166C4.93778 54.0698 2.82984 49.9674 1.5593 44.7094H0V64.0368H1.5593C1.6748 62.159 2.12238 60.8445 2.90203 60.0934C3.68168 59.3422 4.53352 59.1256 5.45755 59.4433C6.41045 59.7323 7.66655 60.3245 9.22585 61.2201C13.2974 63.5313 17.3255 64.7735 21.3104 64.9469C21.803 64.9716 22.2888 64.9854 22.768 64.9882L66.9172 65L68 47.016L66.4407 46.8859C65.8343 57.8353 58.9041 63.3099 45.6501 63.3099L32.1542 63.3125C34.3479 62.4134 36.3208 61.1526 38.0729 59.53C42.1733 55.6876 44.3678 51.0219 44.6566 45.5328C44.8298 41.5748 44.1368 38.2958 42.5775 35.6957C41.5108 34.0158 40.0928 32.4846 38.3234 31.1022L35.4207 29.1521C33.2941 27.952 29.5147 26.3486 24.0825 24.3419C18.2784 22.2329 14.6112 20.3984 13.0808 18.8383C11.8391 17.6249 11.0595 16.2382 10.7418 14.6781C10.3376 12.8292 10.3953 11.0524 10.9151 9.34793C11.3482 7.55674 12.2289 6.14113 13.5572 5.10108Z" fill="white"/>
</svg>
