<svg width="40" height="27" viewBox="0 0 40 27" fill="none" xmlns="http://www.w3.org/2000/svg">
<path d="M20 0.179443C21.5471 0.179443 23.0308 0.857603 24.1248 2.06473C25.2188 3.27186 25.8333 4.90908 25.8333 6.61622C25.8333 8.32337 25.2188 9.96059 24.1248 11.1677C23.0308 12.3748 21.5471 13.053 20 13.053C18.4529 13.053 16.9692 12.3748 15.8752 11.1677C14.7812 9.96059 14.1667 8.32337 14.1667 6.61622C14.1667 4.90908 14.7812 3.27186 15.8752 2.06473C16.9692 0.857603 18.4529 0.179443 20 0.179443ZM8.33333 4.77714C9.26667 4.77714 10.1333 5.05301 10.8833 5.54956C10.6333 8.17944 11.3333 10.7909 12.7667 12.8323C11.9333 14.5978 10.2667 15.8116 8.33333 15.8116C7.00725 15.8116 5.73548 15.2303 4.7978 14.1957C3.86012 13.161 3.33333 11.7576 3.33333 10.2944C3.33333 8.83112 3.86012 7.42779 4.7978 6.39311C5.73548 5.35842 7.00725 4.77714 8.33333 4.77714ZM31.6667 4.77714C32.9927 4.77714 34.2645 5.35842 35.2022 6.39311C36.1399 7.42779 36.6667 8.83112 36.6667 10.2944C36.6667 11.7576 36.1399 13.161 35.2022 14.1957C34.2645 15.2303 32.9927 15.8116 31.6667 15.8116C29.7333 15.8116 28.0667 14.5978 27.2333 12.8323C28.6667 10.7909 29.3667 8.17944 29.1167 5.54956C29.8667 5.05301 30.7333 4.77714 31.6667 4.77714ZM9.16667 23.6277C9.16667 19.8208 14.0167 16.7312 20 16.7312C25.9833 16.7312 30.8333 19.8208 30.8333 23.6277V26.8461H9.16667V23.6277ZM0 26.8461V24.0875C0 21.5312 3.15 19.3794 7.41667 18.7542C6.43333 20.0047 5.83333 21.7335 5.83333 23.6277V26.8461H0ZM40 26.8461H34.1667V23.6277C34.1667 21.7335 33.5667 20.0047 32.5833 18.7542C36.85 19.3794 40 21.5312 40 24.0875V26.8461Z" fill="white"/>
</svg>
