<svg width="24" height="24" viewBox="0 0 24 24" fill="none" xmlns="http://www.w3.org/2000/svg">
<path d="M10.5901 13.4098C11.0001 13.7998 11.0001 14.4398 10.5901 14.8298C10.2001 15.2198 9.56007 15.2198 9.17007 14.8298C7.22007 12.8798 7.22007 9.70982 9.17007 7.75982L12.7101 4.21982C14.6601 2.26982 17.8301 2.26982 19.7801 4.21982C21.7301 6.16982 21.7301 9.33982 19.7801 11.2898L18.2901 12.7798C18.3001 11.9598 18.1701 11.1398 17.8901 10.3598L18.3601 9.87982C19.5401 8.70982 19.5401 6.80982 18.3601 5.63982C17.1901 4.45982 15.2901 4.45982 14.1201 5.63982L10.5901 9.16982C9.41007 10.3398 9.41007 12.2398 10.5901 13.4098ZM13.4101 9.16982C13.8001 8.77982 14.4401 8.77982 14.8301 9.16982C16.7801 11.1198 16.7801 14.2898 14.8301 16.2398L11.2901 19.7798C9.34007 21.7298 6.17007 21.7298 4.22007 19.7798C2.27007 17.8298 2.27007 14.6598 4.22007 12.7098L5.71007 11.2198C5.70007 12.0398 5.83007 12.8598 6.11007 13.6498L5.64007 14.1198C4.46007 15.2898 4.46007 17.1898 5.64007 18.3598C6.81007 19.5398 8.71007 19.5398 9.88007 18.3598L13.4101 14.8298C14.5901 13.6598 14.5901 11.7598 13.4101 10.5898C13.0001 10.1998 13.0001 9.55982 13.4101 9.16982Z" fill="#0023FF"/>
</svg>
