<svg width="381" height="124" viewBox="0 0 381 124" fill="none" xmlns="http://www.w3.org/2000/svg">
<path d="M82.7927 55.6132H75.2543H71.4852H69.6006H67.716L73.2653 59.3334H74.0398H74.8144H82.7927C94.5511 59.3334 100.43 65.451 100.43 77.6861H103.66V37.5911H100.43C100.43 49.6058 94.5511 55.6132 82.7927 55.6132Z" fill="#E5662F"/>
<path d="M25.9182 9.7313C30.0585 6.20404 35.3857 3.78243 41.8998 3.6722C42.1366 3.66229 42.3723 3.65474 42.6068 3.64956L97.6977 3.6777C115.694 3.6777 125.272 12.1927 126.431 29.2228L129.661 28.7267L127.839 0.0402193L42.6068 0.00825135C42.0949 -0.0105657 41.6041 0.0086883 41.0926 0.0086883C29.279 0.0086883 19.5974 3.39326 12.0897 9.89664C5.5756 16.0142 2.31856 23.7025 2.31856 32.9616C2.42897 45.9684 10.8752 56.7155 27.6572 65.2029C30.5278 66.691 34.8889 68.5649 40.7405 70.8245C46.5921 73.029 51.5881 75.2887 55.7284 77.6035C59.9239 80.0285 62.9601 82.4259 64.837 84.7958C66.9348 87.6617 68.1492 90.7756 68.4805 94.1375C68.8117 98.3812 68.3701 102.046 67.1556 105.133C65.8859 108.77 63.6225 111.746 60.3655 114.061C55.2315 117.754 48.5795 119.434 40.4093 119.104C30.1413 118.718 21.6951 115.273 15.0707 108.77C9.43987 103.149 5.40999 95.3224 2.98101 85.2918H0V122.163H2.98101C3.20183 118.58 4.05749 116.073 5.548 114.64C7.0385 113.207 8.66702 112.793 10.4335 113.4C12.2553 113.951 14.6566 115.081 17.6377 116.789C25.4214 121.198 33.1224 123.568 40.7405 123.899C41.6821 123.946 42.611 123.972 43.527 123.978L127.93 124L130 89.692L127.019 89.444C125.86 110.332 112.611 120.776 87.2722 120.776L61.4712 120.781C65.6651 119.065 69.4369 116.66 72.7864 113.565C80.6253 106.235 84.8208 97.3341 85.3729 86.8625C85.7041 79.312 84.3792 73.0566 81.3982 68.0964C79.3589 64.8917 76.6479 61.9707 73.2653 59.3334L67.716 55.6132C63.6505 53.3238 56.4252 50.265 46.0401 46.4368C34.9441 42.4135 27.9332 38.9138 25.0074 35.9377C22.6336 33.623 21.1431 30.9775 20.5359 28.0014C19.763 24.4741 19.8734 21.0847 20.8671 17.833C21.6951 14.4159 23.3789 11.7154 25.9182 9.7313Z" fill="white"/>
<path d="M178.461 33.197C181.058 33.197 183.667 33.7703 186.288 34.9168C189.563 36.3674 191.225 36.0399 191.271 33.9341H192.64L193.728 48.1483L192.43 48.2887C191.47 44.2876 190.078 41.1991 188.253 39.0231C185.866 36.1452 182.719 34.7881 178.812 34.9519C176.051 34.9987 173.793 35.7708 172.038 37.2683C170.962 38.1106 170.248 39.2571 169.897 40.7078C169.476 42.0882 169.429 43.5272 169.757 45.0247C170.014 46.2882 170.646 47.4113 171.652 48.394C172.892 49.6575 175.864 51.1432 180.567 52.8513C185.129 54.5359 188.253 55.8696 189.938 56.8523C192.418 58.3264 194.29 60.0578 195.553 62.0467C196.817 64.1525 197.378 66.8081 197.238 70.0136C197.004 74.4592 195.226 78.238 191.903 81.3499C188.44 84.5554 183.913 86.0178 178.321 85.737C175.092 85.5966 171.828 84.5905 168.529 82.7187C167.265 81.9934 166.247 81.5137 165.475 81.2797C164.726 81.0224 164.036 81.1978 163.404 81.8062C162.773 82.4145 162.41 83.4791 162.316 85H161.053V69.3468H162.316C163.346 73.6052 165.054 76.9277 167.441 79.3143C170.248 82.0753 173.828 83.5376 178.18 83.7014C181.643 83.8418 184.463 83.1282 186.639 81.5605C188.019 80.5778 188.978 79.3143 189.516 77.77C190.031 76.4598 190.218 74.9038 190.078 73.1022C189.938 71.6749 189.423 70.3529 188.534 69.1362C187.738 68.1301 186.451 67.1123 184.673 66.0828C182.918 65.1001 180.801 64.1408 178.321 63.2048C175.84 62.2455 173.992 61.45 172.775 60.8183C165.662 57.215 162.082 52.6524 162.036 47.1305C162.036 43.1996 163.416 39.9356 166.177 37.3385C169.359 34.5775 173.454 33.197 178.461 33.197ZM256.902 48.6396C264.32 48.6396 268.964 50.5115 270.836 54.2551C271.819 56.1738 272.298 58.7007 272.275 61.8361V79.4547C272.275 81.6307 272.86 82.8942 274.03 83.2452C275.363 83.5259 276.966 83.058 278.838 81.8413L279.4 82.9293C276.779 84.6841 274.217 85.5615 271.713 85.5615C266.987 85.5615 264.483 83.8184 264.203 80.3321C263.29 81.8062 261.839 83.1048 259.851 84.2279C257.932 85.3042 255.616 85.8306 252.901 85.8072C249.883 85.6902 247.356 84.7543 245.32 82.9995C243.332 81.2212 242.337 78.823 242.337 75.8046C242.337 70.9379 245.051 67.5686 250.48 65.6967C259.535 62.5146 264.027 58.923 263.957 54.922C263.91 51.8803 261.559 50.3594 256.902 50.3594C255.007 50.3594 253.65 50.7455 252.831 51.5176C252.574 51.7516 252.059 52.8279 251.287 54.7465C250.889 55.7292 250.41 56.513 249.848 57.098C249.333 57.6829 248.713 58.0456 247.988 58.186C247.216 58.3732 246.444 58.2094 245.671 57.6946C245.016 57.2033 244.619 56.5013 244.478 55.5888C244.361 54.2785 245.063 53.0034 246.584 51.7633C249.088 49.7277 252.527 48.6864 256.902 48.6396ZM263.957 61.3096C262.647 62.7837 259.909 64.5619 255.744 66.6443C254.013 67.4633 252.738 68.6449 251.919 70.1891C251.1 71.71 250.702 73.4414 250.725 75.3835C250.796 77.3021 251.31 78.9984 252.27 80.4725C253.276 81.9466 254.738 82.6719 256.657 82.6485C258.997 82.6485 260.786 81.502 262.027 79.209C263.313 76.8926 263.957 73.9562 263.957 70.3997V61.3096ZM300.247 85.8774C297.018 85.8774 293.836 84.7192 290.701 82.4028C289.18 81.2095 287.706 80.9639 286.279 81.6658C284.898 82.3443 283.962 83.8769 283.471 86.2635H282.172V40.2866C282.172 36.2388 280.546 34.519 277.294 35.1274V33.9341L290.56 31.8633V53.0268C293.532 50.2424 296.925 48.8502 300.738 48.8502C305.441 48.8502 309.255 50.453 312.18 53.6585C315.058 56.7236 316.497 61.1575 316.497 66.9602C316.497 72.6225 314.918 77.1851 311.759 80.648C308.647 84.1109 304.81 85.854 300.247 85.8774ZM298.387 51.5527C296.889 51.5527 295.404 51.9738 293.93 52.8162C292.502 53.6351 291.379 54.5593 290.56 55.5888V74.4007C290.607 77.0213 291.403 79.1973 292.947 80.9288C294.561 82.5198 296.258 83.3855 298.036 83.5259C300.867 83.6663 303.23 82.1572 305.126 78.9984C306.997 75.8865 307.922 71.944 307.898 67.1708C307.898 62.4444 307.079 58.6657 305.441 55.8345C303.733 52.9566 301.382 51.5293 298.387 51.5527ZM313.97 50.8157V49.6224H331.624V50.8157C328.886 50.8157 328.523 53.2724 330.536 58.186L337.099 74.12L344.153 57.9052C346.189 53.2022 345.44 50.8391 341.907 50.8157V49.6224H353.98V50.8157C350.611 50.9092 347.897 53.366 345.838 58.186L330.325 94.4411C329.085 97.3424 327.693 99.4248 326.149 100.688C324.604 101.952 322.931 102.724 321.13 103.005C319.351 103.285 317.807 103.168 316.497 102.654C315.187 102.139 314.333 101.355 313.935 100.302C313.56 99.2493 313.537 98.2315 313.865 97.2488C314.216 96.2895 314.859 95.6694 315.795 95.3887C317.246 94.9675 318.486 95.3653 319.515 96.582C320.545 97.7753 321.387 98.4889 322.042 98.7229C323.119 99.1206 324.101 99.0855 324.99 98.6176C326.441 97.8689 327.693 96.2778 328.746 93.8444L332.571 85L321.481 58.186C319.445 53.2724 316.941 50.8157 313.97 50.8157ZM368.546 36.6716H369.669V49.6224H376.934V51.307H369.669V75.8046C369.669 78.4252 370.148 80.2853 371.108 81.385C372.044 82.4145 373.447 82.6602 375.319 82.1221C375.928 81.9349 377.027 81.4903 378.618 80.7884L379.18 82.7187C378.338 83.1867 377.051 83.7365 375.319 84.3683C365.843 87.644 361.105 85.0468 361.105 76.5768V51.307H356.121V50.219C358.742 49.5639 361.21 47.9377 363.527 45.3405C365.867 42.72 367.539 39.8303 368.546 36.6716Z" fill="white"/>
<path d="M223.56 48.8502C227.117 48.8034 229.983 49.8329 232.159 51.9388C234.148 53.9744 235.177 56.9576 235.248 60.8885V76.3311C235.271 81.2212 236.932 83.7014 240.231 83.7716V85H221.876V83.7716C225.245 83.7248 226.918 81.2446 226.895 76.3311V59.6601C226.918 57.601 226.275 55.7643 224.964 54.1499C223.607 52.5822 221.934 51.7984 219.945 51.7984C218.05 51.7984 216.424 52.5822 215.067 54.1499C213.803 55.7175 213.16 57.5543 213.137 59.6601V76.3311C213.137 81.2212 214.775 83.7014 218.05 83.7716V85H199.589V83.7716C202.959 83.7248 204.643 81.2446 204.643 76.3311V40.3217C204.643 36.2739 202.959 34.5658 199.589 35.1975V33.9341L213.137 31.8984V53.6585C215.874 50.4998 219.349 48.897 223.56 48.8502Z" fill="#E5662F"/>
</svg>
